<?xml version="1.0" standalone="no"?>
<!DOCTYPE svg PUBLIC "-//W3C//DTD SVG 20010904//EN"
 "http://www.w3.org/TR/2001/REC-SVG-20010904/DTD/svg10.dtd">
<svg version="1.0" xmlns="http://www.w3.org/2000/svg"
 width="247.000000pt" height="52.000000pt" viewBox="0 0 247.000000 52.000000"
 preserveAspectRatio="xMidYMid meet">

<g transform="translate(0.000000,52.000000) scale(0.100000,-0.100000)"
fill="#000000" stroke="none">
<path d="M0 260 l0 -260 1235 0 1235 0 0 260 0 260 -1235 0 -1235 0 0 -260z
m429 144 c37 -30 40 -59 9 -68 -16 -4 -27 0 -37 14 -9 13 -25 20 -47 20 -47 0
-64 -29 -64 -108 0 -53 4 -67 25 -87 31 -32 50 -31 80 1 19 21 28 24 38 15 8
-6 17 -8 20 -4 4 3 7 -3 7 -15 0 -39 -50 -73 -109 -74 -84 -1 -121 49 -121
165 0 121 34 167 121 167 36 0 55 -6 78 -26z m140 14 c-1 -7 -1 -37 0 -65 l1
-53 60 0 60 0 0 65 0 65 35 0 35 0 -3 -167 -2 -168 -30 0 -30 0 -3 73 -3 72
-62 0 -62 0 0 -73 0 -72 -30 0 -30 0 -3 168 -2 167 35 0 c23 0 35 -5 34 -12z
m431 -3 c51 -26 61 -60 58 -198 l-3 -122 -30 0 c-29 0 -30 2 -31 45 l0 45 -57
3 c-49 3 -57 0 -58 -15 -4 -82 -2 -78 -34 -78 l-30 0 -3 120 c-3 130 5 163 46
195 30 24 100 27 142 5z m188 -3 c14 -36 105 -182 110 -177 3 3 4 48 3 100
l-2 95 35 0 35 0 -2 -167 -2 -168 -28 0 c-33 -1 -39 5 -108 123 l-54 93 -5
-107 -5 -107 -27 -3 -28 -3 0 170 0 169 35 0 c25 0 38 -5 43 -18z m431 -8 c36
-30 39 -49 10 -65 -17 -9 -24 -7 -40 10 -23 24 -80 29 -98 8 -6 -8 -11 -49
-12 -92 -1 -71 1 -81 22 -98 37 -30 98 -3 99 46 0 12 -8 17 -30 17 -27 0 -30
3 -30 30 l0 31 58 -3 57 -3 3 -50 c4 -87 -42 -139 -123 -137 -88 1 -125 51
-125 169 0 116 38 163 132 163 36 0 54 -6 77 -26z m293 14 c9 -1 14 -6 11 -11
-3 -4 3 -17 14 -29 16 -17 18 -38 18 -152 l0 -131 -30 0 c-29 0 -30 2 -33 48
l-3 47 -60 0 -59 0 0 -48 c0 -47 -1 -48 -30 -48 l-30 0 0 134 0 134 35 35 c36
36 48 38 167 21z m283 -2 c40 -17 41 -18 19 -52 -15 -22 -18 -23 -33 -10 -18
17 -80 24 -99 12 -27 -16 -6 -66 28 -66 34 0 91 -22 110 -42 32 -34 27 -93
-10 -128 -36 -34 -80 -41 -143 -25 -66 17 -81 33 -59 62 l17 23 42 -21 c32
-16 49 -19 70 -12 63 21 52 66 -20 78 -100 17 -139 82 -92 156 25 40 106 51
170 25z"/>
<path d="M892 358 c-7 -7 -12 -36 -12 -65 l0 -53 55 0 55 0 0 53 c0 61 -11 77
-55 77 -17 0 -36 -5 -43 -12z"/>
<path d="M1813 369 c-29 -11 -43 -39 -43 -88 l0 -41 60 0 60 0 0 48 c0 26 -4
52 -8 58 -13 21 -47 32 -69 23z"/>
</g>
</svg>
